<svg width="24" height="30" viewBox="0 0 24 30" fill="#ffffff" xmlns="http://www.w3.org/2000/svg">
<g clip-path="url(#clip0)">
<path d="M20.4363 4.39363L1.34437 23.4855C0.758583 24.0713 0.758583 25.0211 1.34437 25.6068C1.93016 26.1926 2.8799 26.1926 3.46569 25.6068L22.5576 6.51495C23.1434 5.92917 23.1434 4.97942 22.5576 4.39363C21.9718 3.80785 21.022 3.80785 20.4363 4.39363Z" fill="#ffffff"/>
<path d="M22.6067 23.4365L3.51478 4.34461C2.92899 3.75883 1.97925 3.75883 1.39346 4.34461C0.807673 4.9304 0.807672 5.88015 1.39346 6.46593L20.4853 25.5578C21.0711 26.1436 22.0209 26.1436 22.6067 25.5578C23.1924 24.972 23.1924 24.0223 22.6067 23.4365Z" fill="#ffffff"/>
</g>
<defs>
<clipPath id="clip0">
<rect width="30" height="24" fill="#ffffff" transform="translate(0 30) rotate(-90)"/>
</clipPath>
</defs>
</svg>
